# xmcd CD database file
#
# Track frame offsets:
#	150
#	16406
#	35180
#	51180
#	71045
#	87323
#	107107
#	124037
#	137911
#	154953
#
# Disc length: 2343 seconds
#
# Revision: 0
# Processed by: cddbd v1.5.1PL2 Copyright (c) Steve Scherf et al.
# Submitted via: CDex 1.51
#
DISCID=9009250a
DTITLE=El Niño Jesus - El Niño Prodigio de la Salsa y el Son
DYEAR=2005
DGENRE=Salsa
TTITLE0=De ti me enamore
TTITLE1=Duele
TTITLE2=Raices
TTITLE3=La fe
TTITLE4=Ladrona
TTITLE5=Tierra Lejana
TTITLE6=Mi son cubano
TTITLE7=El Palito
TTITLE8=Siempre me dices que te marchas
TTITLE9=Chiquilla barrendera
EXTD=YEAR: 2005
EXTT0=
EXTT1=
EXTT2=
EXTT3=
EXTT4=
EXTT5=
EXTT6=
EXTT7=
EXTT8=
EXTT9=
PLAYORDER=
